<svg width="340" height="140" viewBox="0 0 340 140" fill="none" xmlns="http://www.w3.org/2000/svg">
<path d="M118.352 20.7544C105.257 7.67428 87.8477 0.471191 69.3317 0.471191C50.8158 0.471191 33.4062 7.67428 20.3112 20.7544C7.21629 33.8344 0.00502883 51.2243 0.00502883 69.7193C0.00502883 85.0999 5.00363 99.697 14.2063 111.702L2.7608 123.135C-0.920266 126.812 -0.920266 132.769 2.7608 136.446C6.44186 140.123 12.406 140.123 16.0871 136.446L27.5627 124.983C39.5312 134.055 54.0543 138.967 69.3418 138.967C87.8577 138.967 105.267 131.764 118.362 118.684C131.457 105.604 138.668 88.2142 138.668 69.7193C138.658 51.2243 131.447 33.8344 118.352 20.7544ZM83.3218 106.589C83.3117 106.599 83.3117 106.599 83.3017 106.609C75.8993 113.993 63.8705 113.993 56.4681 106.609C49.0658 99.2148 49.0658 87.1996 56.4681 79.8056C60.1693 76.1086 65.0271 74.2601 69.8849 74.2601C74.7427 74.2601 79.6005 76.1086 83.3017 79.8056C90.694 87.1895 90.704 99.1947 83.3218 106.589ZM44.3789 67.7201C32.4306 79.6549 30.6403 97.949 38.9881 111.803C36.6246 110.346 34.422 108.608 32.4105 106.599C18.3802 92.5843 18.3802 69.7796 32.4105 55.7652C39.4306 48.753 48.6433 45.2569 57.8561 45.2569C67.0688 45.2569 76.2915 48.763 83.3017 55.7652C85.3132 57.7744 87.0431 59.9846 88.5014 62.3354C74.6421 53.9971 56.3273 55.7853 44.3789 67.7201ZM106.263 106.609C105.006 107.865 103.698 109.04 102.351 110.145C107.943 101.606 110.96 91.6299 110.96 81.1819C110.96 67.0169 105.438 53.6957 95.4109 43.6797C77.3476 25.6569 49.4278 23.3563 28.8501 36.7679C29.9665 35.4117 31.1432 34.0956 32.4105 32.8399C42.2769 22.9846 55.392 17.5597 69.3317 17.5597C83.2715 17.5597 96.3966 22.9846 106.263 32.8399C116.13 42.6952 121.561 55.7853 121.561 69.7193C121.561 83.6533 116.119 96.7535 106.263 106.609Z" fill="#526BCE"/>
<path d="M253.465 96.4118H230.172V95.8793L238.771 88.7164C259.691 71.3165 265.021 62.275 265.021 51.6662C265.021 34.5777 251.001 23.3863 229.005 23.3863C211.344 23.3863 198.802 31.4835 195.001 45.1865C193.703 49.878 197.193 54.5294 202.071 54.5294H211.264C214.432 54.5294 217.178 52.48 218.234 49.5063C219.843 44.9855 223.795 42.5343 229.005 42.5343C235.865 42.5343 240.742 46.7838 240.742 53.8061C240.742 60.2959 236.579 64.4952 229.81 70.0909L203.731 91.6399C198.571 95.8994 195.584 102.239 195.584 108.929C195.584 112.988 198.873 116.273 202.936 116.273H258.655C262.718 116.273 266.007 112.988 266.007 108.929C266.007 102.018 260.385 96.4118 253.465 96.4118Z" fill="#363A68"/>
<path d="M181.252 24.6422C173.668 24.6422 166.94 30.7803 166.94 38.3652V109.422C166.94 113.209 170.008 116.273 173.799 116.273H180.91C184.712 116.273 187.789 113.199 187.789 109.402V90.2134V64.1436V50.1192V31.1621C187.779 27.5656 184.852 24.6422 181.252 24.6422Z" fill="#363A68"/>
<path d="M305.955 24.6422H293.585H293.574H286.474C278.89 24.6422 272.735 30.7803 272.735 38.3652V109.422C272.735 113.209 275.803 116.273 279.594 116.273H286.705C290.507 116.273 293.585 113.199 293.585 109.402V94.1314V90.2134C293.585 89.5805 294.097 89.0681 294.731 89.0681H305.06C325.98 89.0681 340 76.7616 340 57.0309C340 37.5314 326.342 24.6422 305.955 24.6422ZM303.622 69.7494H301.53H299.991H295.184C294.319 69.7494 293.615 69.0662 293.585 68.2023V50.1192C293.585 47.025 296.451 44.5134 299.991 44.5134H303.612C313.589 44.5134 319.583 49.1648 319.583 57.041C319.583 64.8669 313.599 69.7494 303.622 69.7494Z" fill="#363A68"/>
</svg>
