<?xml version="1.0" encoding="UTF-8" standalone="no"?>
<!-- Created with Inkscape (http://www.inkscape.org/) -->

<svg
   xmlns:dc="http://purl.org/dc/elements/1.1/"
   xmlns:cc="http://creativecommons.org/ns#"
   xmlns:rdf="http://www.w3.org/1999/02/22-rdf-syntax-ns#"
   xmlns:svg="http://www.w3.org/2000/svg"
   xmlns="http://www.w3.org/2000/svg"
   xmlns:sodipodi="http://sodipodi.sourceforge.net/DTD/sodipodi-0.dtd"
   xmlns:inkscape="http://www.inkscape.org/namespaces/inkscape"
   width="109.95727mm"
   height="27.706699mm"
   viewBox="0 0 109.95727 27.706699"
   version="1.1"
   id="svg4773"
   inkscape:version="0.92.1 r"
   sodipodi:docname="horizontal_color.svg">
  <defs
     id="defs4767" />
  <sodipodi:namedview
     id="base"
     pagecolor="#ffffff"
     bordercolor="#666666"
     borderopacity="1.0"
     inkscape:pageopacity="0.0"
     inkscape:pageshadow="2"
     inkscape:zoom="0.98994949"
     inkscape:cx="125.25987"
     inkscape:cy="51.24018"
     inkscape:document-units="mm"
     inkscape:current-layer="layer1"
     showgrid="false"
     fit-margin-top="0"
     fit-margin-left="0"
     fit-margin-right="0"
     fit-margin-bottom="0"
     inkscape:window-width="1366"
     inkscape:window-height="740"
     inkscape:window-x="0"
     inkscape:window-y="0"
     inkscape:window-maximized="1" />
  <metadata
     id="metadata4770">
    <rdf:RDF>
      <cc:Work
         rdf:about="">
        <dc:format>image/svg+xml</dc:format>
        <dc:type
           rdf:resource="http://purl.org/dc/dcmitype/StillImage" />
        <dc:title></dc:title>
      </cc:Work>
    </rdf:RDF>
  </metadata>
  <g
     inkscape:label="Layer 1"
     inkscape:groupmode="layer"
     id="layer1"
     transform="translate(-55.768389,-115.63486)">
    <g
       id="g5355">
      <path
         inkscape:connector-curvature="0"
         id="path4516"
         style="fill:#231f20;fill-opacity:1;fill-rule:nonzero;stroke:none;stroke-width:0.46456254"
         d="m 55.768389,116.32817 h 5.625388 v 26.53071 h -5.625388 z" />
      <path
         inkscape:connector-curvature="0"
         id="path4528"
         style="fill:#231f20;fill-opacity:1;fill-rule:nonzero;stroke:none;stroke-width:0.46456254"
         d="M 83.567492,142.85915 H 64.806129 v -3.94692 l 6.737086,-6.81049 c 1.994831,-2.04361 3.297929,-3.46052 3.910222,-4.24981 0.611829,-0.78977 1.052235,-1.52051 1.321681,-2.19367 0.268981,-0.67315 0.403705,-1.37046 0.403705,-2.09285 0,-1.07686 -0.296392,-1.8787 -0.890103,-2.40504 -0.593711,-0.52589 -1.38579,-0.78929 -2.377165,-0.78929 -1.040621,0 -2.050116,0.23877 -3.028948,0.71589 -0.979764,0.47756 -2.001336,1.15675 -3.066113,2.03756 l -3.083766,-3.65285 c 1.321681,-1.1261 2.416654,-1.92143 3.285851,-2.38646 0.868731,-0.46502 1.817367,-0.8232 2.845444,-1.07406 1.028078,-0.25087 2.178334,-0.3763 3.451235,-0.3763 1.676607,0 3.157633,0.30615 4.442612,0.91798 1.284979,0.61229 2.282403,1.46848 2.992248,2.56995 0.709385,1.10148 1.064782,2.36231 1.064782,3.78154 0,1.23667 -0.217415,2.39575 -0.651785,3.47912 -0.434369,1.08288 -1.107514,2.19365 -2.01946,3.33183 -0.911472,1.13818 -2.517923,2.75997 -4.818901,4.86443 l -3.451235,3.24962 v 0.2569 h 11.693973 z" />
      <path
         inkscape:connector-curvature="0"
         id="path4532"
         style="fill:#231f20;fill-opacity:1;fill-rule:nonzero;stroke:none;stroke-width:0.46456254"
         d="m 92.213601,128.81343 h 1.850822 c 1.730025,0 3.024298,-0.34145 3.88374,-1.02529 0.858507,-0.68337 1.288228,-1.67846 1.288228,-2.98528 0,-1.31843 -0.360032,-2.29215 -1.079636,-2.92164 -0.720078,-0.62854 -1.848504,-0.94352 -3.384343,-0.94352 h -2.558811 z m 12.703009,-4.21033 c 0,2.85566 -0.89243,5.03911 -2.67682,6.55126 -1.78485,1.51261 -4.322284,2.26845 -7.612787,2.26845 h -2.413402 v 9.43621 h -5.625393 v -26.53071 h 8.474561 c 3.218022,0 5.664411,0.69266 7.340551,2.078 1.6752,1.38532 2.51329,3.45076 2.51329,6.19679" />
      <path
         inkscape:connector-curvature="0"
         id="path4536"
         style="fill:#ffc434;fill-opacity:1;fill-rule:nonzero;stroke:none;stroke-width:0.46456254"
         d="m 121.18308,137.09597 c 0,-3.44937 -2.79621,-6.24557 -6.24559,-6.24557 -3.44937,0 -6.24557,2.7962 -6.24557,6.24557 0,3.44939 2.7962,6.24559 6.24557,6.24559 3.44938,0 6.24559,-2.7962 6.24559,-6.24559" />
      <path
         inkscape:connector-curvature="0"
         id="path4540"
         style="fill:#60ab60;fill-opacity:1;fill-rule:nonzero;stroke:none;stroke-width:0.46456254"
         d="m 121.18308,122.24846 c 0,-3.44937 -2.79621,-6.24557 -6.24559,-6.24557 -3.44937,0 -6.24557,2.7962 -6.24557,6.24557 0,3.44938 2.7962,6.24559 6.24557,6.24559 3.44938,0 6.24559,-2.79621 6.24559,-6.24559" />
      <path
         inkscape:connector-curvature="0"
         id="path4544"
         style="fill:#e15647;fill-opacity:1;fill-rule:nonzero;stroke:none;stroke-width:0.46456254"
         d="m 136.03063,137.09597 c 0,-3.44937 -2.7962,-6.24557 -6.24557,-6.24557 -3.44939,0 -6.24559,2.7962 -6.24559,6.24557 0,3.44939 2.7962,6.24559 6.24559,6.24559 3.44937,0 6.24557,-2.7962 6.24557,-6.24559" />
      <path
         inkscape:connector-curvature="0"
         id="path4548"
         style="fill:#ffc434;fill-opacity:1;fill-rule:nonzero;stroke:none;stroke-width:0.46456254"
         d="m 136.03063,122.24846 c 0,-3.44937 -2.7962,-6.24557 -6.24557,-6.24557 -3.44939,0 -6.24559,2.7962 -6.24559,6.24557 0,3.44938 2.7962,6.24559 6.24559,6.24559 3.44937,0 6.24557,-2.79621 6.24557,-6.24559" />
      <path
         inkscape:connector-curvature="0"
         id="path4552"
         style="fill:#ffc434;fill-opacity:1;fill-rule:nonzero;stroke:none;stroke-width:0.46456254"
         d="m 150.87814,137.09597 c 0,-3.44937 -2.7962,-6.24557 -6.24557,-6.24557 -3.44938,0 -6.24559,2.7962 -6.24559,6.24557 0,3.44939 2.79621,6.24559 6.24559,6.24559 3.44937,0 6.24557,-2.7962 6.24557,-6.24559" />
      <path
         inkscape:connector-curvature="0"
         id="path4556"
         style="fill:#60ab60;fill-opacity:1;fill-rule:nonzero;stroke:none;stroke-width:0.46456254"
         d="m 150.87814,122.24846 c 0,-3.44937 -2.7962,-6.24557 -6.24557,-6.24557 -3.44938,0 -6.24559,2.7962 -6.24559,6.24557 0,3.44938 2.79621,6.24559 6.24559,6.24559 3.44937,0 6.24557,-2.79621 6.24557,-6.24559" />
      <path
         inkscape:connector-curvature="0"
         id="path4560"
         style="fill:#60ab60;fill-opacity:1;fill-rule:nonzero;stroke:none;stroke-width:0.46456254"
         d="m 165.72566,137.09597 c 0,-3.44937 -2.7962,-6.24557 -6.24559,-6.24557 -3.44937,0 -6.24557,2.7962 -6.24557,6.24557 0,3.44939 2.7962,6.24559 6.24557,6.24559 3.44939,0 6.24559,-2.7962 6.24559,-6.24559" />
      <path
         inkscape:connector-curvature="0"
         id="path4564"
         style="fill:#e15647;fill-opacity:1;fill-rule:nonzero;stroke:none;stroke-width:0.46456254"
         d="m 165.72566,122.24846 c 0,-3.44937 -2.7962,-6.24557 -6.24559,-6.24557 -3.44937,0 -6.24557,2.7962 -6.24557,6.24557 0,3.44938 2.7962,6.24559 6.24557,6.24559 3.44939,0 6.24559,-2.79621 6.24559,-6.24559" />
    </g>
  </g>
</svg>
